<?xml version="1.0" standalone="no"?><!DOCTYPE svg PUBLIC "-//W3C//DTD SVG 1.1//EN" "http://www.w3.org/Graphics/SVG/1.1/DTD/svg11.dtd"><svg class="icon" height="512" viewBox="0 0 1026 1024" version="1.1" xmlns="http://www.w3.org/2000/svg"><path d="M32 0v1024"  /><path d="M64 0v1024"  /><path d="M96 0v1024"  /><path d="M128 0v1024"  /><path d="M160 0v1024"  /><path d="M192 0v1024"  /><path d="M224 0v1024"  /><path d="M256 0v1024"  /><path d="M288 0v1024"  /><path d="M320 0v1024"  /><path d="M352 0v1024"  /><path d="M384 0v1024"  /><path d="M416 0v1024"  /><path d="M448 0v1024"  /><path d="M480 0v1024"  /><path d="M512 0v1024"  /><path d="M544 0v1024"  /><path d="M576 0v1024"  /><path d="M608 0v1024"  /><path d="M640 0v1024"  /><path d="M672 0v1024"  /><path d="M704 0v1024"  /><path d="M736 0v1024"  /><path d="M768 0v1024"  /><path d="M800 0v1024"  /><path d="M832 0v1024"  /><path d="M864 0v1024"  /><path d="M896 0v1024"  /><path d="M928 0v1024"  /><path d="M960 0v1024"  /><path d="M992 0v1024"  /><path d="M1024 0v1024"  /><path d="M0 32h1026"  /><path d="M0 64h1026"  /><path d="M0 96h1026"  /><path d="M0 128h1026"  /><path d="M0 160h1026"  /><path d="M0 192h1026"  /><path d="M0 224h1026"  /><path d="M0 256h1026"  /><path d="M0 288h1026"  /><path d="M0 320h1026"  /><path d="M0 352h1026"  /><path d="M0 384h1026"  /><path d="M0 416h1026"  /><path d="M0 448h1026"  /><path d="M0 480h1026"  /><path d="M0 512h1026"  /><path d="M0 544h1026"  /><path d="M0 576h1026"  /><path d="M0 608h1026"  /><path d="M0 640h1026"  /><path d="M0 672h1026"  /><path d="M0 704h1026"  /><path d="M0 736h1026"  /><path d="M0 768h1026"  /><path d="M0 800h1026"  /><path d="M0 832h1026"  /><path d="M0 864h1026"  /><path d="M0 896h1026"  /><path d="M0 928h1026"  /><path d="M0 960h1026"  /><path d="M0 992h1026"  /><path d="M826.5 733.5c-13-93.5-51-176.5-136-188-44 48-107.5 78.5-177.5 78.5s-133.5-30.5-177.5-78.5c-85.002 11.5-122.998 94.5-136.002 188 69.502 98 184 162.5 313.5 162.5s244-64.5 313.5-162.5zM705 384c0-106-86-192.002-192-192.002s-192 86-192 192.002 86 192 192 192 192-86 192-192z m256 128c0 246.5-200 448-448 448-247.5 0-448-201-448-448 0-247.5 200.5-448 448-448s448 200.5 448 448z"  /></svg>